<svg width="512" height="512" viewBox="0 0 512 512" xmlns="http://www.w3.org/2000/svg">
  <rect width="512" height="512" fill="#0c0d09"/>
  <rect x="16" y="16" width="480" height="480" rx="64" fill="none" stroke="#d9a440" stroke-width="6" opacity="0.5"/>
  <path d="M 326 176
           C 326 140, 296 112, 256 112
           C 206 112, 166 152, 166 256
           C 166 360, 206 400, 256 400
           C 296 400, 326 372, 326 336
           L 326 270
           L 240 270
           L 240 232
           L 364 232
           L 364 336
           C 364 392, 316 438, 256 438
           C 184 438, 128 366, 128 256
           C 128 146, 184 74, 256 74
           C 318 74, 364 116, 364 176 Z"
        fill="#f0c66a"/>
</svg>
